<svg fill="none" height="150" viewBox="0 0 43 150" width="43" xmlns="http://www.w3.org/2000/svg">
    <g stroke-linecap="round" stroke-width="9.04692">
        <path d="m20.172 144.999-14.92542-9.091" stroke="#b05504"/>
        <path d="m37.4762 135.958-32.22962-17.272" stroke="#b05504"/>
        <path d="m37.4762 135.959h-32.79505" stroke="#b05504"/>
        <g stroke="#b05504">
            <path d="m37.4762 32.2727-32.22962-17.2727"/>
            <path d="m37.4772 15-16.963-10"/>
            <path d="m37.4762 49.5462-32.22962-17.2728"/>
            <path d="m37.2313 67.2593-31.74058-18.1558"/>
            <path d="m37.4762 84.0911-32.22962-17.2727"/>
            <path d="m37.4762 101.413-32.22962-17.2724"/>
            <path d="m37.4762 118.685-32.22962-17.273"/>
        </g>
        <path d="m37.4762 49.5449h-32.79505" stroke="#fb6e04"/>
        <path d="m37.4762 66.8184h-32.79505" stroke="#fb6e04"/>
        <path d="m37.4762 84.0918h-32.79505" stroke="#fb6e04"/>
        <path d="m37.4762 101.412h-32.79505" stroke="#fb6e04"/>
        <path d="m37.4762 118.686h-32.79505" stroke="#fb6e04"/>
        <path d="m37.4762 32.2734h-32.79505" stroke="#fb6e04"/>
        <path d="m37.4762 15h-32.79505" stroke="#fb6e04"/>
    </g>
</svg>