<svg xmlns="http://www.w3.org/2000/svg" id="canvas" viewBox="173.025 226.931 839.590 153.738">
    <path d="M 177.65,339.69 C 178.25 339.32, 178.49 338.81, 179.22 337.41 C 179.95 336.02, 180.48 335.27, 181.31 332.72 C 182.14 330.18, 182.35 328.13, 183.37 324.69 C 184.39 321.25, 185.03 318.90, 186.42 315.53 C 187.80 312.15, 188.90 310.22, 190.28 307.80 C 191.66 305.38, 192.29 304.26, 193.33 303.44 C 194.36 302.61, 194.62 302.39, 195.46 303.68 C 196.29 304.98, 196.69 306.31, 197.51 309.91 C 198.33 313.51, 199.05 316.35, 199.57 321.66 C 200.09 326.98, 200.15 330.58, 200.12 336.49 C 200.09 342.40, 199.84 345.97, 199.43 351.22 C 199.02 356.47, 198.33 359.30, 198.07 362.72 C 197.82 366.15, 197.80 367.58, 198.16 368.35 C 198.51 369.12, 199.29 368.67, 199.87 366.57 C 200.44 364.48, 200.41 362.33, 201.03 357.89 C 201.66 353.45, 201.94 350.08, 202.99 344.38 C 204.05 338.69, 204.75 334.90, 206.29 329.41 C 207.83 323.92, 208.84 320.97, 210.69 316.96 C 212.54 312.94, 213.89 311.35, 215.54 309.34 C 217.19 307.33, 217.76 306.62, 218.95 306.89 C 220.14 307.16, 220.39 308.05, 221.49 310.70 C 222.60 313.35, 223.55 315.61, 224.47 320.13 C 225.40 324.64, 225.67 328.01, 226.13 333.27 C 226.59 338.52, 226.58 341.83, 226.78 346.40 C 226.97 350.97, 226.59 353.33, 227.10 356.11 C 227.61 358.89, 228.14 359.91, 229.31 360.29 C 230.47 360.67, 231.52 360.20, 232.92 358.00 C 234.33 355.81, 234.80 353.47, 236.34 349.31 C 237.89 345.14, 238.75 341.99, 240.63 337.19 C 242.51 332.39, 243.74 329.26, 245.74 325.30 C 247.74 321.33, 249.19 319.29, 250.63 317.35 C 252.08 315.41, 252.18 314.93, 252.96 315.60 C 253.73 316.27, 253.87 317.59, 254.52 320.72 C 255.17 323.84, 255.70 326.44, 256.21 331.22 C 256.72 336.00, 256.75 339.25, 257.06 344.62 C 257.37 349.98, 257.31 353.17, 257.76 358.07 C 258.21 362.96, 258.20 365.52, 259.31 369.10 C 260.42 372.68, 261.12 374.32, 263.32 375.96 C 265.53 377.59, 267.31 378.10, 270.35 377.29 C 273.39 376.48, 275.05 375.11, 278.50 371.92 C 281.95 368.74, 283.69 366.26, 287.60 361.36 C 291.51 356.45, 293.86 353.08, 298.05 347.40 C 302.24 341.72, 304.59 338.28, 308.57 332.96 C 312.54 327.63, 314.50 324.82, 317.92 320.78 C 321.33 316.74, 323.13 315.05, 325.65 312.77 C 328.17 310.49, 329.14 309.94, 330.50 309.39 C 331.85 308.83, 331.96 309.20, 332.41 309.97 C 332.87 310.75, 332.76 311.68, 332.77 313.26 C 332.78 314.83, 332.68 316.08, 332.48 317.86 C 332.29 319.64, 332.15 320.73, 331.81 322.15 C 331.47 323.57, 331.32 324.31, 330.78 324.96 C 330.25 325.61, 330.08 325.59, 329.13 325.39 C 328.19 325.20, 327.64 324.47, 326.05 324.00 C 324.46 323.52, 323.32 322.83, 321.21 323.01 C 319.09 323.20, 317.64 323.29, 315.46 324.90 C 313.27 326.52, 312.06 327.86, 310.29 331.07 C 308.52 334.29, 307.64 336.63, 306.60 340.97 C 305.56 345.31, 305.20 348.14, 305.09 352.75 C 304.98 357.36, 305.14 360.13, 306.05 364.02 C 306.96 367.90, 307.66 369.85, 309.64 372.17 C 311.63 374.49, 313.29 375.40, 315.98 375.60 C 318.68 375.81, 320.44 375.26, 323.13 373.20 C 325.82 371.13, 327.05 369.17, 329.43 365.28 C 331.81 361.39, 332.99 358.77, 335.02 353.75 C 337.05 348.73, 338.01 345.10, 339.58 340.17 C 341.15 335.23, 342.12 332.33, 342.88 329.08 C 343.63 325.82, 343.40 324.38, 343.34 323.89 C 343.28 323.39, 342.51 324.19, 342.59 326.61 C 342.66 329.04, 342.94 331.61, 343.72 336.00 C 344.50 340.39, 345.06 343.82, 346.48 348.55 C 347.91 353.27, 348.74 356.08, 350.85 359.63 C 352.97 363.17, 354.28 364.92, 357.05 366.26 C 359.83 367.60, 361.66 367.75, 364.74 366.34 C 367.82 364.93, 369.37 363.24, 372.46 359.20 C 375.54 355.15, 377.08 352.36, 380.17 346.10 C 383.25 339.85, 385.00 335.76, 387.88 327.93 C 390.76 320.11, 392.11 315.21, 394.57 306.98 C 397.02 298.75, 398.31 294.07, 400.17 286.77 C 402.03 279.48, 402.96 275.56, 403.86 270.49 C 404.77 265.43, 404.99 263.29, 404.70 261.44 C 404.41 259.60, 403.33 259.56, 402.43 261.26 C 401.53 262.95, 401.03 265.02, 400.20 269.92 C 399.37 274.82, 398.96 278.52, 398.27 285.76 C 397.59 293.00, 397.25 297.91, 396.78 306.13 C 396.30 314.35, 396.09 319.35, 395.90 326.86 C 395.70 334.36, 395.53 338.15, 395.79 343.67 C 396.06 349.19, 396.04 351.72, 397.22 354.46 C 398.40 357.19, 399.69 357.67, 401.69 357.35 C 403.69 357.04, 404.88 355.68, 407.22 352.87 C 409.55 350.05, 410.80 347.48, 413.35 343.30 C 415.91 339.11, 417.48 336.08, 419.99 331.94 C 422.51 327.80, 424.07 325.34, 425.92 322.60 C 427.77 319.85, 428.38 318.70, 429.24 318.19 C 430.10 317.68, 429.79 318.21, 430.23 320.06 C 430.67 321.92, 430.78 323.77, 431.43 327.47 C 432.07 331.16, 432.47 334.07, 433.46 338.54 C 434.45 343.01, 434.86 345.81, 436.38 349.82 C 437.90 353.83, 438.70 355.99, 441.08 358.60 C 443.45 361.21, 445.04 362.47, 448.26 362.87 C 451.47 363.27, 453.49 362.51, 457.15 360.60 C 460.80 358.68, 462.81 356.80, 466.53 353.29 C 470.24 349.77, 472.25 347.34, 475.72 343.00 C 479.18 338.66, 481.06 335.88, 483.87 331.59 C 486.67 327.30, 487.99 324.99, 489.73 321.54 C 491.47 318.08, 492.19 316.48, 492.56 314.32 C 492.94 312.16, 492.62 311.34, 491.62 310.73 C 490.63 310.12, 489.38 310.11, 487.59 311.29 C 485.81 312.47, 484.50 313.74, 482.70 316.63 C 480.90 319.52, 480.10 321.78, 478.59 325.75 C 477.08 329.73, 476.27 332.19, 475.17 336.49 C 474.06 340.79, 473.47 343.29, 473.07 347.25 C 472.67 351.21, 472.40 353.38, 473.17 356.30 C 473.94 359.22, 475.01 360.69, 476.91 361.84 C 478.80 362.99, 480.29 363.27, 482.64 362.05 C 484.99 360.83, 486.22 359.51, 488.66 355.75 C 491.11 351.99, 492.53 349.22, 494.88 343.24 C 497.22 337.26, 498.42 333.22, 500.39 325.85 C 502.37 318.49, 503.33 314.15, 504.77 306.40 C 506.21 298.64, 506.81 294.19, 507.61 287.08 C 508.40 279.97, 508.55 276.36, 508.75 270.84 C 508.95 265.32, 509.14 262.73, 508.61 259.50 C 508.08 256.26, 507.34 255.00, 506.12 254.65 C 504.90 254.31, 503.65 254.85, 502.51 257.77 C 501.37 260.68, 501.02 263.44, 500.41 269.24 C 499.81 275.03, 499.56 278.86, 499.46 286.75 C 499.37 294.64, 499.50 299.94, 499.95 308.68 C 500.40 317.41, 500.79 322.43, 501.72 330.41 C 502.64 338.39, 503.16 342.49, 504.59 348.58 C 506.01 354.66, 506.79 357.42, 508.83 360.83 C 510.88 364.25, 512.14 365.38, 514.80 365.65 C 517.46 365.92, 519.22 364.90, 522.14 362.17 C 525.05 359.43, 526.51 356.81, 529.37 351.98 C 532.24 347.15, 533.75 343.60, 536.46 338.02 C 539.16 332.43, 540.64 328.65, 542.89 324.06 C 545.14 319.47, 546.42 317.25, 547.72 315.08 C 549.03 312.91, 548.97 312.45, 549.40 313.21 C 549.82 313.97, 549.56 315.48, 549.87 318.87 C 550.18 322.25, 550.39 325.27, 550.95 330.14 C 551.50 335.00, 551.72 338.46, 552.64 343.20 C 553.55 347.94, 553.91 350.83, 555.51 353.83 C 557.11 356.82, 558.59 357.44, 560.62 358.18 C 562.65 358.91, 564.04 358.33, 565.64 357.50 C 567.25 356.68, 568.28 354.99, 568.64 354.06 C 568.99 353.13, 568.24 352.59, 567.41 352.84 C 566.58 353.09, 565.68 354.66, 564.49 355.31 C 563.30 355.96, 562.71 356.63, 561.45 356.07 C 560.20 355.51, 559.41 355.18, 558.22 352.49 C 557.02 349.81, 556.33 347.20, 555.47 342.66 C 554.62 338.12, 554.48 334.65, 553.96 329.81 C 553.44 324.96, 553.61 321.93, 552.88 318.41 C 552.15 314.90, 551.73 313.22, 550.29 312.24 C 548.85 311.27, 547.58 311.40, 545.67 313.55 C 543.76 315.71, 543.00 318.33, 540.75 323.02 C 538.51 327.72, 537.13 331.50, 534.45 337.05 C 531.77 342.59, 530.15 346.09, 527.34 350.76 C 524.52 355.43, 522.86 357.81, 520.39 360.40 C 517.91 362.98, 516.92 363.81, 514.97 363.69 C 513.01 363.58, 512.34 362.91, 510.59 359.81 C 508.84 356.71, 507.69 354.10, 506.21 348.18 C 504.72 342.27, 504.13 338.16, 503.18 330.24 C 502.22 322.32, 501.83 317.29, 501.44 308.60 C 501.05 299.91, 500.99 294.61, 501.24 286.79 C 501.49 278.97, 501.89 275.15, 502.68 269.51 C 503.47 263.87, 504.54 261.41, 505.17 258.58 C 505.80 255.76, 505.61 255.14, 505.82 255.38 C 506.02 255.62, 505.97 256.70, 506.18 259.78 C 506.39 262.86, 506.89 265.37, 506.86 270.80 C 506.83 276.23, 506.74 279.85, 506.02 286.91 C 505.30 293.98, 504.70 298.42, 503.25 306.11 C 501.79 313.81, 500.81 318.13, 498.75 325.40 C 496.68 332.67, 495.39 336.67, 492.92 342.44 C 490.46 348.21, 488.75 350.81, 486.41 354.25 C 484.07 357.69, 482.87 358.51, 481.23 359.66 C 479.58 360.81, 479.14 360.81, 478.18 360.00 C 477.21 359.18, 476.84 358.07, 476.41 355.58 C 475.98 353.09, 475.71 351.19, 476.02 347.52 C 476.33 343.85, 476.84 341.34, 477.96 337.23 C 479.09 333.13, 479.99 330.70, 481.63 327.00 C 483.27 323.30, 484.54 321.44, 486.16 318.75 C 487.78 316.06, 488.72 314.99, 489.72 313.55 C 490.72 312.11, 491.07 311.54, 491.15 311.55 C 491.23 311.56, 490.90 311.85, 490.12 313.60 C 489.34 315.35, 488.92 316.97, 487.27 320.31 C 485.63 323.66, 484.57 326.08, 481.90 330.33 C 479.23 334.58, 477.34 337.33, 473.92 341.56 C 470.51 345.79, 468.44 348.15, 464.84 351.48 C 461.23 354.81, 459.14 356.49, 455.89 358.21 C 452.64 359.93, 451.13 360.37, 448.60 360.07 C 446.06 359.78, 445.11 358.97, 443.20 356.73 C 441.30 354.48, 440.41 352.60, 439.07 348.83 C 437.74 345.07, 437.39 342.30, 436.53 337.90 C 435.67 333.50, 435.56 330.59, 434.78 326.83 C 433.99 323.06, 433.82 321.10, 432.62 319.06 C 431.41 317.02, 430.56 316.27, 428.74 316.62 C 426.92 316.97, 425.73 318.03, 423.49 320.80 C 421.26 323.57, 420.11 326.29, 417.59 330.48 C 415.06 334.67, 413.40 337.64, 410.85 341.76 C 408.30 345.88, 406.75 348.26, 404.84 351.07 C 402.92 353.88, 402.37 355.31, 401.27 355.83 C 400.18 356.35, 400.08 356.13, 399.36 353.67 C 398.64 351.22, 398.03 348.92, 397.66 343.56 C 397.29 338.21, 397.35 334.36, 397.50 326.89 C 397.65 319.43, 397.85 314.42, 398.41 306.23 C 398.97 298.05, 399.45 293.16, 400.30 285.98 C 401.15 278.79, 401.89 275.17, 402.64 270.32 C 403.40 265.47, 403.97 263.52, 404.08 261.74 C 404.19 259.95, 403.60 259.70, 403.17 261.38 C 402.75 263.07, 402.83 265.14, 401.94 270.15 C 401.04 275.15, 400.42 279.12, 398.68 286.41 C 396.93 293.69, 395.64 298.37, 393.19 306.57 C 390.74 314.77, 389.37 319.65, 386.43 327.39 C 383.50 335.13, 381.67 339.19, 378.51 345.27 C 375.36 351.35, 373.64 354.06, 370.66 357.80 C 367.68 361.53, 366.08 362.74, 363.61 363.95 C 361.13 365.17, 360.35 365.01, 358.28 363.87 C 356.22 362.73, 355.06 361.47, 353.27 358.23 C 351.49 355.00, 350.65 352.27, 349.38 347.71 C 348.10 343.14, 347.70 339.75, 346.90 335.42 C 346.10 331.10, 346.20 328.52, 345.38 326.10 C 344.57 323.68, 343.89 322.90, 342.83 323.33 C 341.77 323.76, 341.22 325.04, 340.08 328.26 C 338.95 331.48, 338.62 334.51, 337.15 339.42 C 335.68 344.33, 334.73 347.93, 332.72 352.81 C 330.70 357.69, 329.40 360.23, 327.09 363.81 C 324.78 367.40, 323.35 368.91, 321.17 370.74 C 318.98 372.56, 317.99 373.05, 316.16 372.95 C 314.33 372.85, 313.47 372.17, 312.01 370.25 C 310.55 368.33, 309.68 366.84, 308.86 363.35 C 308.04 359.87, 307.77 357.16, 307.90 352.83 C 308.03 348.50, 308.44 345.72, 309.53 341.72 C 310.62 337.72, 311.73 335.59, 313.36 332.83 C 315.00 330.07, 316.09 329.13, 317.70 327.92 C 319.31 326.71, 319.94 326.78, 321.41 326.77 C 322.88 326.76, 323.51 327.52, 325.04 327.86 C 326.57 328.20, 327.53 328.61, 329.07 328.47 C 330.61 328.33, 331.42 328.12, 332.72 327.15 C 334.02 326.17, 334.69 325.36, 335.57 323.59 C 336.45 321.82, 336.94 320.48, 337.11 318.28 C 337.27 316.08, 337.05 314.52, 336.40 312.58 C 335.76 310.63, 335.19 309.59, 333.88 308.55 C 332.58 307.51, 331.86 306.90, 329.87 307.37 C 327.89 307.85, 326.67 308.48, 323.97 310.91 C 321.27 313.34, 319.75 315.32, 316.39 319.52 C 313.02 323.71, 311.09 326.53, 307.13 331.89 C 303.17 337.24, 300.81 340.67, 296.57 346.30 C 292.34 351.92, 289.91 355.27, 285.96 360.02 C 282.01 364.77, 280.09 367.14, 276.80 370.04 C 273.51 372.94, 271.93 373.72, 269.53 374.52 C 267.14 375.31, 266.35 375.25, 264.82 374.01 C 263.28 372.78, 262.79 371.57, 261.86 368.34 C 260.93 365.10, 260.64 362.61, 260.18 357.84 C 259.71 353.07, 259.77 349.87, 259.54 344.49 C 259.31 339.11, 259.43 335.86, 259.02 330.95 C 258.61 326.04, 258.53 323.30, 257.49 319.94 C 256.45 316.59, 255.61 315.08, 253.82 314.18 C 252.04 313.29, 250.68 313.50, 248.57 315.47 C 246.46 317.45, 245.38 319.91, 243.27 324.04 C 241.16 328.18, 240.00 331.31, 238.02 336.14 C 236.04 340.97, 234.94 344.08, 233.36 348.18 C 231.79 352.29, 230.90 354.40, 230.16 356.67 C 229.41 358.95, 229.65 359.74, 229.65 359.57 C 229.64 359.40, 230.16 358.47, 230.12 355.81 C 230.08 353.15, 229.73 350.82, 229.45 346.26 C 229.17 341.71, 229.16 338.39, 228.73 333.05 C 228.29 327.71, 228.16 324.32, 227.27 319.58 C 226.37 314.84, 225.87 312.26, 224.27 309.35 C 222.68 306.44, 221.46 305.41, 219.30 305.04 C 217.15 304.67, 215.65 305.29, 213.49 307.48 C 211.34 309.67, 210.40 311.72, 208.53 315.98 C 206.66 320.25, 205.75 323.22, 204.15 328.80 C 202.54 334.38, 201.71 338.16, 200.50 343.89 C 199.29 349.63, 198.71 352.99, 198.09 357.48 C 197.46 361.97, 197.20 364.13, 197.38 366.34 C 197.55 368.55, 198.27 369.19, 198.96 368.53 C 199.65 367.87, 200.27 366.48, 200.82 363.05 C 201.37 359.61, 201.41 356.68, 201.71 351.37 C 202.02 346.07, 202.26 342.49, 202.35 336.51 C 202.43 330.52, 202.50 326.92, 202.13 321.45 C 201.77 315.99, 201.48 313.06, 200.51 309.19 C 199.54 305.32, 198.94 303.66, 197.29 302.10 C 195.64 300.53, 194.29 300.61, 192.26 301.35 C 190.24 302.09, 189.00 303.24, 187.18 305.80 C 185.35 308.36, 184.64 310.63, 183.14 314.16 C 181.64 317.70, 180.92 320.03, 179.68 323.48 C 178.44 326.93, 177.64 328.81, 176.94 331.42 C 176.23 334.02, 176.29 334.94, 176.15 336.51 C 176.01 338.08, 175.93 338.64, 176.23 339.28 C 176.53 339.91, 177.05 340.06, 177.65 339.69"
          style="stroke: currentColor; fill: currentColor;"/>
    <path d="M 561.23,237.55 C 560.76 237.99, 560.52 238.46, 560.57 239.11 C 560.61 239.77, 560.89 240.44, 561.46 240.83 C 562.03 241.22, 562.80 241.29, 563.41 241.06 C 564.02 240.82, 564.24 240.18, 564.49 239.66 C 564.74 239.15, 564.67 238.92, 564.64 238.50 C 564.62 238.08, 564.72 237.88, 564.38 237.57 C 564.03 237.26, 563.55 236.95, 562.92 236.94 C 562.29 236.94, 561.70 237.12, 561.23 237.55"
          style="stroke: currentColor; fill: currentColor;"/>
    <path d="M 664.79,241.42 C 664.52 242.07, 664.66 242.36, 664.73 244.32 C 664.79 246.28, 664.99 247.36, 665.14 251.23 C 665.29 255.09, 665.40 257.64, 665.48 263.67 C 665.57 269.69, 665.66 273.59, 665.55 281.35 C 665.45 289.10, 665.16 293.83, 664.94 302.46 C 664.72 311.09, 664.50 316.00, 664.45 324.51 C 664.39 333.01, 664.41 337.67, 664.66 344.97 C 664.91 352.28, 665.06 355.87, 665.68 361.03 C 666.31 366.20, 666.63 368.62, 667.80 370.81 C 668.97 373.00, 670.33 373.36, 671.53 372.00 C 672.73 370.63, 673.44 368.11, 673.79 364.01 C 674.14 359.91, 673.76 356.17, 673.28 351.49 C 672.80 346.81, 672.17 342.73, 671.38 340.60 C 670.60 338.47, 669.62 338.61, 669.35 340.84 C 669.09 343.07, 669.80 347.14, 670.06 351.75 C 670.32 356.36, 670.63 359.98, 670.67 363.89 C 670.70 367.79, 670.44 370.05, 670.23 371.29 C 670.03 372.53, 670.17 372.19, 669.64 370.08 C 669.11 367.98, 668.28 365.82, 667.58 360.79 C 666.89 355.75, 666.53 352.17, 666.18 344.91 C 665.83 337.66, 665.80 333.00, 665.84 324.51 C 665.88 316.03, 666.10 311.13, 666.38 302.50 C 666.66 293.88, 666.98 289.15, 667.24 281.39 C 667.50 273.62, 667.48 269.73, 667.69 263.69 C 667.90 257.64, 668.27 255.12, 668.28 251.17 C 668.29 247.22, 668.18 245.95, 667.74 243.93 C 667.30 241.91, 666.67 241.57, 666.08 241.07 C 665.49 240.56, 665.06 240.77, 664.79 241.42"
          style="stroke: currentColor; fill: currentColor;"/>
    <path d="M 636.51,313.48 C 636.98 313.96, 637.12 314.42, 639.00 314.70 C 640.89 314.97, 642.23 315.13, 645.93 314.87 C 649.63 314.61, 652.11 314.15, 657.52 313.40 C 662.92 312.64, 666.57 312.17, 672.96 311.10 C 679.34 310.04, 682.91 309.30, 689.45 308.07 C 695.99 306.85, 699.53 306.25, 705.67 304.99 C 711.81 303.74, 715.05 303.01, 720.15 301.79 C 725.25 300.57, 727.70 300.09, 731.18 298.90 C 734.66 297.71, 736.11 297.08, 737.53 295.82 C 738.95 294.55, 739.15 293.48, 738.27 292.58 C 737.38 291.68, 735.98 290.85, 733.10 291.34 C 730.22 291.82, 727.92 292.81, 723.87 295.02 C 719.82 297.22, 717.17 298.83, 712.84 302.35 C 708.51 305.87, 706.00 308.25, 702.22 312.61 C 698.44 316.98, 696.43 319.68, 693.93 324.18 C 691.43 328.69, 690.34 331.25, 689.73 335.14 C 689.12 339.03, 689.42 341.14, 690.86 343.63 C 692.30 346.11, 693.96 347.16, 696.92 347.58 C 699.88 347.99, 701.94 347.45, 705.64 345.69 C 709.34 343.93, 711.59 342.34, 715.44 338.77 C 719.30 335.20, 721.48 332.52, 724.93 327.84 C 728.38 323.16, 730.07 320.03, 732.69 315.35 C 735.32 310.68, 736.73 307.92, 738.07 304.46 C 739.41 300.99, 739.51 299.17, 739.40 298.04 C 739.29 296.91, 738.25 297.11, 737.52 298.80 C 736.79 300.50, 736.16 302.69, 735.75 306.52 C 735.35 310.34, 735.15 313.33, 735.49 317.92 C 735.83 322.51, 736.27 325.36, 737.46 329.47 C 738.65 333.58, 739.21 335.75, 741.45 338.47 C 743.68 341.18, 745.40 342.44, 748.63 343.05 C 751.87 343.66, 753.89 343.18, 757.62 341.52 C 761.35 339.85, 763.42 338.26, 767.30 334.73 C 771.17 331.19, 773.29 328.55, 776.99 323.85 C 780.70 319.14, 782.60 315.99, 785.82 311.19 C 789.04 306.39, 790.55 303.61, 793.10 299.85 C 795.64 296.09, 796.90 294.49, 798.54 292.41 C 800.18 290.32, 800.41 289.54, 801.29 289.41 C 802.18 289.28, 802.11 290.01, 802.98 291.76 C 803.85 293.50, 804.33 295.09, 805.63 298.15 C 806.93 301.22, 807.89 303.30, 809.48 307.07 C 811.07 310.85, 812.12 313.15, 813.57 317.03 C 815.03 320.91, 815.91 322.99, 816.76 326.49 C 817.60 329.98, 817.86 331.67, 817.79 334.52 C 817.73 337.37, 817.40 338.62, 816.43 340.74 C 815.47 342.86, 814.67 343.74, 812.95 345.14 C 811.24 346.54, 810.06 347.02, 807.86 347.74 C 805.67 348.47, 804.25 348.65, 801.98 348.76 C 799.72 348.87, 798.31 348.67, 796.54 348.29 C 794.76 347.91, 793.81 347.90, 793.09 346.85 C 792.38 345.80, 792.42 345.10, 792.94 343.04 C 793.46 340.98, 793.81 339.72, 795.69 336.56 C 797.57 333.41, 799.02 331.34, 802.35 327.27 C 805.67 323.21, 808.02 320.97, 812.31 316.24 C 816.60 311.51, 819.11 308.94, 823.78 303.64 C 828.44 298.34, 831.01 295.44, 835.62 289.75 C 840.24 284.06, 842.70 281.00, 846.85 275.21 C 851.00 269.41, 853.14 266.24, 856.35 260.76 C 859.57 255.28, 860.93 252.43, 862.93 247.81 C 864.92 243.19, 865.79 241.00, 866.33 237.67 C 866.87 234.34, 866.52 232.55, 865.63 231.16 C 864.73 229.77, 863.40 229.47, 861.85 230.72 C 860.31 231.98, 859.43 233.48, 857.91 237.42 C 856.39 241.36, 855.62 244.12, 854.27 250.42 C 852.91 256.72, 852.26 260.92, 851.14 268.92 C 850.01 276.92, 849.47 281.92, 848.63 290.42 C 847.80 298.93, 847.33 303.78, 846.96 311.45 C 846.59 319.11, 846.56 323.09, 846.78 328.75 C 847.00 334.41, 846.96 336.81, 848.05 339.76 C 849.14 342.71, 850.20 343.36, 852.21 343.49 C 854.21 343.63, 855.66 342.74, 858.07 340.42 C 860.47 338.09, 861.71 335.75, 864.23 331.86 C 866.74 327.96, 868.22 324.96, 870.64 320.95 C 873.06 316.93, 874.43 314.52, 876.33 311.78 C 878.22 309.04, 878.96 307.94, 880.13 307.25 C 881.30 306.56, 881.43 306.82, 882.18 308.32 C 882.93 309.81, 883.00 311.56, 883.85 314.71 C 884.71 317.86, 885.21 320.36, 886.44 324.04 C 887.67 327.73, 888.27 330.00, 889.99 333.12 C 891.70 336.24, 892.54 337.88, 895.00 339.65 C 897.46 341.43, 899.11 342.08, 902.28 342.01 C 905.44 341.94, 907.24 341.17, 910.82 339.30 C 914.40 337.42, 916.36 335.77, 920.17 332.62 C 923.99 329.47, 926.20 327.22, 929.91 323.55 C 933.61 319.87, 935.60 317.54, 938.70 314.23 C 941.79 310.92, 943.44 309.31, 945.39 307.01 C 947.34 304.70, 947.89 303.66, 948.45 302.71 C 949.01 301.76, 948.65 301.70, 948.18 302.27 C 947.70 302.84, 946.87 303.68, 946.06 305.55 C 945.25 307.42, 944.72 308.97, 944.13 311.61 C 943.55 314.24, 943.38 316.04, 943.14 318.72 C 942.90 321.41, 942.69 322.92, 942.93 325.04 C 943.18 327.15, 943.47 328.23, 944.37 329.29 C 945.26 330.35, 946.06 330.71, 947.39 330.34 C 948.73 329.97, 949.73 329.36, 951.04 327.44 C 952.36 325.53, 953.03 323.82, 953.99 320.78 C 954.94 317.74, 955.43 315.61, 955.82 312.23 C 956.21 308.85, 956.51 306.70, 955.94 303.90 C 955.37 301.11, 954.56 299.64, 952.95 298.26 C 951.34 296.88, 949.99 296.48, 947.90 297.01 C 945.80 297.54, 944.36 298.48, 942.47 300.90 C 940.59 303.33, 939.67 305.42, 938.47 309.14 C 937.26 312.86, 936.77 315.31, 936.44 319.50 C 936.11 323.70, 936.10 326.27, 936.81 330.11 C 937.53 333.94, 938.03 335.99, 940.02 338.67 C 942.01 341.35, 943.69 342.51, 946.74 343.51 C 949.79 344.50, 951.72 344.48, 955.27 343.65 C 958.82 342.82, 960.93 341.69, 964.50 339.36 C 968.07 337.02, 970.15 334.99, 973.12 332.00 C 976.09 329.01, 977.85 326.96, 979.36 324.41 C 980.88 321.86, 980.83 320.26, 980.69 319.25 C 980.55 318.25, 979.63 318.25, 978.67 319.37 C 977.70 320.48, 976.32 321.98, 975.86 324.85 C 975.41 327.72, 975.30 330.32, 976.39 333.71 C 977.49 337.10, 978.51 339.21, 981.33 341.81 C 984.14 344.42, 986.63 345.38, 990.47 346.74 C 994.30 348.10, 996.90 348.34, 1000.50 348.60 C 1004.09 348.86, 1006.84 348.49, 1008.43 348.05 C 1010.03 347.61, 1009.98 346.89, 1008.46 346.40 C 1006.94 345.90, 1004.22 346.11, 1000.83 345.59 C 997.44 345.08, 994.95 345.06, 991.50 343.84 C 988.05 342.61, 985.80 341.72, 983.58 339.48 C 981.36 337.23, 981.00 335.45, 980.38 332.62 C 979.77 329.78, 980.46 327.82, 980.52 325.29 C 980.58 322.77, 980.89 321.33, 980.70 320.01 C 980.51 318.69, 980.47 318.23, 979.58 318.69 C 978.69 319.14, 978.00 320.06, 976.26 322.29 C 974.51 324.51, 973.52 326.90, 970.84 329.81 C 968.16 332.72, 966.10 334.68, 962.85 336.85 C 959.59 339.02, 957.59 339.93, 954.56 340.67 C 951.53 341.40, 950.11 341.30, 947.71 340.53 C 945.30 339.77, 944.10 339.04, 942.51 336.84 C 940.93 334.65, 940.38 332.98, 939.79 329.57 C 939.20 326.16, 939.17 323.64, 939.57 319.79 C 939.97 315.93, 940.56 313.60, 941.79 310.29 C 943.03 306.99, 944.34 305.41, 945.75 303.24 C 947.15 301.08, 947.73 300.10, 948.80 299.45 C 949.87 298.81, 950.45 299.03, 951.11 300.02 C 951.77 301.02, 951.99 302.09, 952.10 304.41 C 952.21 306.74, 952.19 308.64, 951.66 311.63 C 951.13 314.62, 950.32 316.58, 949.46 319.37 C 948.59 322.15, 947.95 323.68, 947.33 325.54 C 946.72 327.40, 946.58 328.08, 946.37 328.66 C 946.16 329.23, 946.21 329.12, 946.29 328.40 C 946.36 327.69, 946.44 326.89, 946.74 325.09 C 947.03 323.29, 947.25 321.89, 947.77 319.41 C 948.30 316.92, 948.88 315.26, 949.35 312.66 C 949.82 310.07, 950.07 308.53, 950.12 306.43 C 950.18 304.34, 950.19 303.22, 949.63 302.20 C 949.08 301.18, 948.69 300.79, 947.36 301.32 C 946.03 301.85, 945.11 302.63, 943.00 304.86 C 940.88 307.10, 939.74 309.11, 936.78 312.49 C 933.81 315.88, 931.83 318.19, 928.18 321.81 C 924.53 325.43, 922.27 327.61, 918.53 330.59 C 914.80 333.58, 912.76 335.07, 909.49 336.72 C 906.22 338.38, 904.71 338.78, 902.19 338.86 C 899.67 338.95, 898.73 338.61, 896.88 337.15 C 895.04 335.69, 894.37 334.41, 892.97 331.57 C 891.57 328.73, 891.01 326.53, 889.89 322.93 C 888.78 319.34, 888.55 316.82, 887.41 313.60 C 886.27 310.37, 885.81 308.46, 884.19 306.81 C 882.58 305.15, 881.41 304.70, 879.34 305.33 C 877.28 305.95, 876.10 307.12, 873.86 309.94 C 871.61 312.76, 870.57 315.38, 868.13 319.43 C 865.68 323.48, 864.12 326.41, 861.65 330.19 C 859.19 333.97, 857.69 335.98, 855.80 338.33 C 853.91 340.69, 853.32 341.80, 852.20 341.94 C 851.09 342.09, 850.95 341.71, 850.22 339.06 C 849.50 336.40, 848.93 334.17, 848.58 328.66 C 848.23 323.15, 848.17 319.13, 848.47 311.51 C 848.77 303.90, 849.24 299.04, 850.10 290.57 C 850.96 282.10, 851.52 277.10, 852.77 269.16 C 854.02 261.23, 854.79 257.06, 856.35 250.91 C 857.91 244.77, 859.15 242.19, 860.57 238.44 C 861.99 234.68, 862.72 233.46, 863.45 232.12 C 864.17 230.78, 864.14 230.71, 864.19 231.73 C 864.24 232.74, 864.31 234.12, 863.68 237.19 C 863.05 240.25, 862.80 242.49, 861.04 247.03 C 859.27 251.58, 857.96 254.45, 854.86 259.90 C 851.76 265.35, 849.65 268.51, 845.56 274.28 C 841.46 280.05, 839.00 283.10, 834.40 288.75 C 829.79 294.40, 827.21 297.28, 822.51 302.51 C 817.81 307.75, 815.28 310.27, 810.88 314.91 C 806.48 319.55, 804.07 321.70, 800.51 325.71 C 796.95 329.71, 795.24 331.60, 793.07 334.93 C 790.90 338.26, 790.13 339.67, 789.66 342.36 C 789.20 345.05, 789.57 346.50, 790.74 348.37 C 791.90 350.24, 793.19 350.83, 795.47 351.71 C 797.75 352.59, 799.40 352.85, 802.13 352.77 C 804.87 352.70, 806.54 352.34, 809.15 351.33 C 811.77 350.33, 813.16 349.61, 815.22 347.76 C 817.27 345.91, 818.29 344.71, 819.44 342.07 C 820.59 339.44, 820.93 337.82, 820.96 334.57 C 820.99 331.31, 820.53 329.49, 819.60 325.79 C 818.67 322.08, 817.73 320.01, 816.31 316.03 C 814.89 312.05, 813.95 309.75, 812.49 305.87 C 811.04 302.00, 810.46 299.83, 809.05 296.67 C 807.63 293.50, 807.01 291.85, 805.43 290.06 C 803.85 288.27, 802.97 287.63, 801.15 287.72 C 799.34 287.81, 798.35 288.35, 796.34 290.52 C 794.34 292.69, 793.57 294.66, 791.12 298.56 C 788.66 302.46, 787.22 305.22, 784.06 310.01 C 780.90 314.80, 778.97 317.92, 775.30 322.51 C 771.63 327.10, 769.46 329.64, 765.71 332.96 C 761.96 336.27, 759.85 337.62, 756.54 339.09 C 753.23 340.55, 751.73 340.75, 749.15 340.27 C 746.58 339.79, 745.45 339.00, 743.67 336.69 C 741.89 334.38, 741.20 332.51, 740.23 328.71 C 739.26 324.92, 739.00 322.11, 738.81 317.72 C 738.63 313.34, 739.13 310.51, 739.31 306.80 C 739.50 303.08, 739.95 300.97, 739.74 299.13 C 739.52 297.29, 739.11 296.76, 738.26 297.61 C 737.41 298.46, 737.01 300.04, 735.49 303.37 C 733.97 306.70, 733.14 309.62, 730.67 314.25 C 728.20 318.87, 726.52 321.97, 723.14 326.51 C 719.76 331.04, 717.52 333.61, 713.78 336.93 C 710.03 340.25, 707.73 341.56, 704.42 343.13 C 701.11 344.69, 699.49 344.90, 697.23 344.75 C 694.96 344.60, 694.08 344.22, 693.08 342.38 C 692.08 340.53, 691.66 338.96, 692.23 335.54 C 692.79 332.12, 693.56 329.56, 695.89 325.26 C 698.22 320.96, 700.17 318.24, 703.86 314.04 C 707.55 309.84, 710.06 307.52, 714.35 304.27 C 718.63 301.02, 721.35 299.64, 725.28 297.78 C 729.21 295.92, 731.50 295.81, 734.00 294.96 C 736.50 294.11, 737.28 293.73, 737.77 293.55 C 738.25 293.36, 737.89 293.46, 736.41 294.04 C 734.92 294.61, 733.68 295.26, 730.32 296.41 C 726.97 297.57, 724.64 298.44, 719.64 299.80 C 714.64 301.16, 711.41 301.92, 705.30 303.22 C 699.20 304.52, 695.66 305.12, 689.12 306.30 C 682.59 307.48, 679.03 308.19, 672.65 309.11 C 666.27 310.02, 662.62 310.41, 657.23 310.87 C 651.85 311.32, 649.36 311.24, 645.74 311.39 C 642.11 311.54, 640.91 311.45, 639.09 311.63 C 637.28 311.80, 637.17 311.89, 636.66 312.26 C 636.14 312.63, 636.04 312.99, 636.51 313.48"
          style="stroke: currentColor; fill: currentColor;"/>
</svg>